<?xml version="1.0" encoding="UTF-8" standalone="no"?>
<!-- Created with Inkscape (http://www.inkscape.org/) -->

<svg
   version="1.1"
   id="svg1"
   width="117.44"
   height="115.2"
   viewBox="0 0 117.44 115.2"
   sodipodi:docname="cell-tower-icon.jpg"
   inkscape:version="0.0"
   xmlns:inkscape="http://www.inkscape.org/namespaces/inkscape"
   xmlns:sodipodi="http://sodipodi.sourceforge.net/DTD/sodipodi-0.dtd"
   xmlns="http://www.w3.org/2000/svg"
   xmlns:svg="http://www.w3.org/2000/svg">
  <defs
     id="defs1" />
  <sodipodi:namedview
     id="namedview1"
     pagecolor="#ffffff"
     bordercolor="#000000"
     borderopacity="0.25"
     inkscape:showpageshadow="2"
     inkscape:pageopacity="0.0"
     inkscape:pagecheckerboard="0"
     inkscape:deskcolor="#d1d1d1"
     showgrid="false"
     inkscape:zoom="6.9444446"
     inkscape:cx="58.751998"
     inkscape:cy="57.599998"
     inkscape:window-width="1920"
     inkscape:window-height="1011"
     inkscape:window-x="0"
     inkscape:window-y="0"
     inkscape:window-maximized="1"
     inkscape:current-layer="g1">
    <inkscape:page
       x="0"
       y="0"
       width="117.44"
       height="115.2"
       id="page2"
       margin="0"
       bleed="0" />
  </sodipodi:namedview>
  <g
     inkscape:groupmode="layer"
     inkscape:label="Image"
     id="g1">
    <path
       style="fill:#000000"
       d="m 37.275365,108.35783 c -0.472795,-0.72157 -0.0046,-2.59924 8.792623,-35.259279 5.110607,-18.973414 9.292013,-34.68644 9.292013,-34.917834 0,-0.231395 -0.138989,-0.420718 -0.308865,-0.420718 -0.586761,0 -2.610858,-2.02336 -3.22151,-3.220337 -2.640537,-5.175879 1.093661,-11.299663 6.890375,-11.299663 5.796715,0 9.530912,6.123784 6.890376,11.299663 -0.610652,1.196977 -2.63475,3.220337 -3.22151,3.220337 -0.169876,0 -0.308866,0.187463 -0.308866,0.416584 0,0.229121 4.180106,15.944131 9.289124,34.922244 8.77352,32.590383 9.261565,34.547723 8.792623,35.263413 -0.846198,1.29146 -2.529985,0.81213 -3.131224,-0.89139 -0.104196,-0.29522 -4.19463,-2.54486 -9.252782,-5.0888 l -9.066026,-4.559661 -9.055962,4.560851 c -7.440522,3.74727 -9.11303,4.71095 -9.375877,5.40229 -0.583835,1.5356 -2.174771,1.83865 -3.004512,0.5723 z m 11.390804,-7.99921 c 3.769607,-1.914763 6.98049,-3.596621 7.135294,-3.737465 0.154805,-0.140845 -2.200655,-1.498764 -5.234354,-3.017599 -3.033699,-1.518834 -5.572737,-2.704596 -5.642307,-2.635026 -0.147927,0.147927 -1.701253,5.641107 -2.659855,9.40631 -0.36615,1.43817 -0.760498,2.86182 -0.876329,3.16367 -0.264544,0.68939 -0.804001,0.9251 7.277551,-3.17989 z m 27.34647,3.04119 c -0.10477,-0.3301 -0.897895,-3.22552 -1.762499,-6.434264 -0.864605,-3.208747 -1.637129,-5.899205 -1.71672,-5.978796 -0.07959,-0.07959 -2.623629,1.09637 -5.653419,2.613248 -3.029789,1.516877 -5.411845,2.854821 -5.293456,2.97321 0.271576,0.271576 14.000903,7.338972 14.355021,7.389482 0.14386,0.0205 0.175843,-0.23278 0.07107,-0.56288 z M 64.234599,92.407151 c 2.857029,-1.455934 5.197029,-2.739757 5.2,-2.852939 0.0068,-0.260354 -10.428501,-7.058902 -10.776767,-7.020988 -0.41325,0.04499 -10.658365,6.800225 -10.652655,7.023953 0.0069,0.269794 9.939577,5.404845 10.554824,5.456684 0.264,0.02224 2.817569,-1.150775 5.674598,-2.60671 z m -12.769745,-7.970124 5.224854,-3.431091 -3.870914,-2.593348 c -2.562589,-1.716825 -3.920711,-2.454644 -4.018248,-2.182969 -0.08103,0.225709 -0.802379,2.858379 -1.602989,5.850379 -0.80061,2.992 -1.521933,5.627479 -1.60294,5.85662 -0.176779,0.500047 -0.650015,0.78217 5.870237,-3.499591 z M 71.680001,87.7148 c 0,-0.377245 -2.910829,-11.326787 -3.091808,-11.630323 -0.07723,-0.129536 -1.873366,0.925476 -3.991405,2.344472 l -3.850979,2.579992 5.227096,3.468023 c 5.298238,3.515222 5.707096,3.747182 5.707096,3.237836 z m -8.48,-11.01432 c 2.112,-1.398878 3.954428,-2.646382 4.094283,-2.772231 0.206741,-0.186036 -5.24362,-3.654398 -7.972975,-5.07364 -0.584784,-0.304083 -1.2636,-0.0062 -4.905895,2.152549 -2.324961,1.378004 -4.226842,2.614075 -4.226403,2.746823 0.0014,0.434721 8.476168,5.898516 8.828049,5.691586 0.188618,-0.11092 2.070941,-1.346209 4.182941,-2.745087 z M 53.51896,68.959998 c 1.53072,-0.88 2.787159,-1.67808 2.792085,-1.773511 0.01456,-0.282139 -4.16446,-2.639739 -4.350091,-2.454109 -0.09346,0.09346 -0.424517,1.154912 -0.735677,2.358776 -0.31116,1.203864 -0.675251,2.529881 -0.809091,2.946704 -0.288632,0.898896 -0.407583,0.940218 3.102774,-1.07786 z m 13.49284,1.04 c -0.127231,-0.396 -0.485914,-1.70498 -0.797074,-2.908844 -0.31116,-1.203864 -0.642215,-2.265313 -0.735678,-2.358776 -0.184802,-0.184802 -4.362454,2.170072 -4.353698,2.454109 0.006,0.195999 5.451586,3.451939 5.856215,3.501484 0.143861,0.01761 0.157466,-0.291973 0.03023,-0.687973 z m -5.491799,-5.817463 c 0.836,-0.485843 1.52,-0.913894 1.52,-0.951226 0,-0.176413 -4.124453,-3.070256 -4.365237,-3.062784 -0.457174,0.01419 -3.999936,2.798111 -3.925556,3.084727 0.03807,0.14671 0.947077,0.797168 2.020008,1.445462 1.695537,1.024488 2.034525,1.125623 2.590785,0.772944 0.352,-0.223174 1.324,-0.803279 2.16,-1.289123 z m -6.62627,-4.060983 c 0.960449,-0.725146 1.743196,-1.409146 1.739438,-1.52 -0.0038,-0.110854 -0.580492,-0.60742 -1.28163,-1.103478 -0.921542,-0.651996 -1.312612,-0.785007 -1.411259,-0.48 -0.291988,0.902795 -1.140279,4.050507 -1.140279,4.231175 0,0.373182 0.369233,0.174311 2.09373,-1.127697 z m 9.622304,0.758446 c -0.0919,-0.308 -0.337184,-1.28 -0.545071,-2.16 -0.207888,-0.88 -0.473949,-1.708349 -0.591247,-1.840777 -0.249866,-0.282093 -2.419716,1.240636 -2.419716,1.698077 0,0.326081 3.009007,2.792011 3.461564,2.836809 0.143861,0.01424 0.186372,-0.226109 0.09447,-0.534109 z m -2.830733,-5.847232 c 0.574915,-0.41853 1.006915,-0.860195 0.96,-0.981479 -0.118325,-0.305892 -3.673194,-3.171288 -3.934364,-3.171288 -0.352727,0 -3.956395,3.022971 -3.891372,3.264314 0.03324,0.123373 0.924074,0.869282 1.979632,1.657575 l 1.919196,1.433259 0.960804,-0.720709 c 0.528442,-0.39639 1.431189,-1.063143 2.006104,-1.481672 z m -4.725301,-5.787004 c 0,-0.15717 -0.216,-0.285763 -0.48,-0.285763 -0.264,0 -0.48,0.21148 -0.48,0.469957 0,0.286269 0.187613,0.397963 0.48,0.285763 0.264,-0.101306 0.48,-0.312787 0.48,-0.469957 z m 4.48,0.194237 c 0,-0.264 -0.216,-0.48 -0.48,-0.48 -0.832786,0 -0.562909,0.63066 0.4,0.934737 0.044,0.01389 0.08,-0.190737 0.08,-0.454737 z m -1.610482,-2.548843 c 0.731322,-0.778456 0.734426,-0.813216 0.235705,-2.64 C 59.787267,43.23302 59.3933,41.75817 59.189742,40.973712 58.739564,39.238855 58.591838,39.465368 57.592014,43.423554 l -0.743531,2.943556 0.775759,0.645798 c 1.012174,0.842607 1.315016,0.825887 2.205277,-0.121752 z m 1.177384,-11.393862 c 2.578421,-1.248192 3.582096,-4.180834 2.291215,-6.694712 -1.009634,-1.966173 -2.465076,-2.882583 -4.578117,-2.882583 -5.377471,0 -7.115242,7.192694 -2.312176,9.570178 1.7047,0.843814 2.866977,0.845613 4.599078,0.0071 z M 32.542942,53.312358 c -3.577401,-4.216838 -5.908739,-8.821697 -7.33272,-14.483587 -1.032139,-4.103888 -1.027941,-12.12947 0.0085,-16.253337 1.425918,-5.67354 4.205506,-11.024306 7.814806,-15.0436699 l 1.426201,-1.5882357 1.090135,1.2307544 c 1.761952,1.9892299 1.762214,1.9934978 0.223191,3.6443712 -3.061478,3.283977 -5.526056,7.96394 -6.709553,12.740708 -0.992234,4.004799 -0.992234,10.316475 0,14.321275 1.183497,4.776767 3.648075,9.45673 6.709553,12.740707 0.977337,1.048367 1.319267,1.638969 1.133285,1.957481 -0.358195,0.613448 -2.288469,2.781174 -2.476524,2.781174 -0.08236,0 -0.931449,-0.921439 -1.886874,-2.047641 z m 49.21706,0.860678 c -1.613617,-1.917442 -1.613698,-1.920534 -0.09306,-3.551692 3.061479,-3.283977 5.526057,-7.96394 6.709554,-12.740707 0.992234,-4.0048 0.992234,-10.316476 0,-14.321275 -1.183493,-4.776768 -3.648071,-9.456731 -6.70955,-12.740708 -1.539022,-1.6508734 -1.538761,-1.6551413 0.223191,-3.6443712 l 1.090135,-1.2307544 1.426201,1.5882357 c 3.609301,4.0193639 6.388888,9.3701299 7.814807,15.0436699 1.036442,4.123867 1.040639,12.149449 0.0085,16.253337 -0.956958,3.804959 -2.366396,7.244105 -4.132478,10.083587 -1.489537,2.394858 -4.758056,6.466476 -5.157341,6.424537 -0.120978,-0.01271 -0.65196,-0.536443 -1.179959,-1.163859 z m -42.8187,-7.311855 c -4.206459,-4.575002 -6.168866,-10.329799 -5.886127,-17.261182 0.175552,-4.303686 0.850351,-6.945621 2.65858,-10.40872 1.167197,-2.235402 4.200125,-6.090952 4.752197,-6.041137 0.183727,0.01658 0.889101,0.660613 1.567497,1.431189 l 1.233448,1.401048 -1.652358,1.84881 c -6.350966,7.106046 -6.352146,18.684464 -0.0026,25.77762 l 1.654983,1.848811 -1.233448,1.401047 c -0.678396,0.770576 -1.349863,1.414612 -1.492147,1.43119 -0.142285,0.01658 -0.862285,-0.626326 -1.6,-1.428676 z m 36.465251,-0.0025 -1.233448,-1.401047 1.618715,-1.816157 c 6.388078,-7.167264 6.388078,-18.675664 0,-25.842927 l -1.618715,-1.816157 1.233448,-1.401048 c 0.678397,-0.770576 1.345016,-1.414611 1.481377,-1.431189 0.449237,-0.05462 2.929939,2.835368 4.148692,4.833171 4.631913,7.592718 4.631913,17.880655 0,25.473372 -1.218753,1.997804 -3.699455,4.887788 -4.148692,4.833172 -0.136361,-0.01658 -0.80298,-0.660614 -1.481377,-1.43119 z M 44.439738,40.239999 c -4.510624,-5.675672 -4.510624,-13.364328 0,-19.04 0.73433,-0.924 1.538156,-1.68 1.78628,-1.68 0.248124,0 0.980214,0.645672 1.626866,1.434825 l 1.175731,1.434825 -1.394307,1.552373 c -1.725426,1.92103 -2.517473,4.053515 -2.517473,6.777977 0,2.724462 0.792047,4.856947 2.517473,6.777977 l 1.394307,1.552373 -1.175731,1.434825 c -0.646652,0.789154 -1.378742,1.434825 -1.626866,1.434825 -0.248124,0 -1.05195,-0.756 -1.78628,-1.68 z m 25.131096,0.225302 -1.192015,-1.454697 1.151763,-1.185303 c 1.817657,-1.870585 2.782585,-4.283795 2.786293,-6.968297 0.0041,-2.959809 -0.687616,-4.888307 -2.460629,-6.860325 l -1.444859,-1.60703 1.175731,-1.434825 c 0.646652,-0.789153 1.378742,-1.434825 1.626866,-1.434825 0.248124,0 1.051951,0.756 1.786281,1.68 3.689812,4.642853 4.409716,10.778905 1.885218,16.068515 -0.930386,1.949447 -3.123218,4.651485 -3.774902,4.651485 -0.191253,0 -0.884139,-0.654614 -1.539747,-1.454698 z"
       id="path1" />
  </g>
</svg>
