<?xml version="1.0" encoding="UTF-8" standalone="no"?>
<!-- Created with Inkscape (http://www.inkscape.org/) -->

<svg
   version="1.1"
   id="svg1"
   width="500"
   height="500"
   viewBox="0 0 500 500"
   sodipodi:docname="hawaiian-island-map-outline-vector-55378863.webp"
   xmlns:inkscape="http://www.inkscape.org/namespaces/inkscape"
   xmlns:sodipodi="http://sodipodi.sourceforge.net/DTD/sodipodi-0.dtd"
   xmlns="http://www.w3.org/2000/svg"
   xmlns:svg="http://www.w3.org/2000/svg">
  <defs
     id="defs1" />
  <sodipodi:namedview
     id="namedview1"
     pagecolor="#ffffff"
     bordercolor="#000000"
     borderopacity="0.25"
     inkscape:showpageshadow="2"
     inkscape:pageopacity="0.0"
     inkscape:pagecheckerboard="0"
     inkscape:deskcolor="#d1d1d1">
    <inkscape:page
       x="0"
       y="0"
       width="500"
       height="500"
       id="page2"
       margin="0"
       bleed="0" />
  </sodipodi:namedview>
  <g
     inkscape:groupmode="layer"
     inkscape:label="Image"
     id="g1">
    <path
       style="fill:#000000"
       d="m 389.61688,431.75 c -0.32997,-1.2375 -2.88999,-3.825 -5.68893,-5.75 -13.74254,-9.45157 -14.27774,-10.79614 -10.36982,-26.05181 2.62384,-10.24287 2.70903,-11.24556 1.52049,-17.89626 -0.6925,-3.87499 -1.66849,-7.29845 -2.16886,-7.6077 C 372.40939,374.13499 372,371.84645 372,369.3586 c 0,-2.84036 -1.11621,-7.06655 -3,-11.3586 -1.65,-3.75937 -3,-7.98164 -3,-9.38282 0,-3.0222 4.97788,-9.01803 9.4815,-11.42042 C 378.74722,335.45471 389,324.71963 389,323.04233 c 0,-0.51508 -1.125,-3.05234 -2.5,-5.63835 -4.26717,-8.02545 -2.92202,-19.47876 2.37674,-20.23686 4.51955,-0.64661 7.42354,1.00299 13.87861,7.88372 5.10536,5.44201 7.55383,7.26046 11.25643,8.36002 6.13167,1.82091 10.02385,3.85479 17.98822,9.39984 9.11588,6.34678 13.67526,10.78259 17.98384,17.49646 3.39136,5.28461 3.65366,6.18446 2.91498,10 -1.24073,6.40882 -1.15254,6.69284 2.07813,6.69284 3.66582,0 6.49449,3.7535 5.75276,7.63362 -0.64662,3.38257 4.21152,10.48125 8.90166,13.00706 3.99113,2.14937 4.32906,4.72421 1.11366,8.4855 -3.4949,4.08824 -14.48648,11.2982 -22.74503,14.91969 -7.21733,3.16489 -9.34933,3.52544 -17,2.87487 -2.75717,-0.23445 -4.51715,0.47969 -8.29249,3.36479 -2.63588,2.01432 -7.04236,4.46149 -9.7922,5.43815 -4.39509,1.56099 -5.55786,2.62869 -9.61521,8.82899 C 399.49987,427.36005 392.7777,434 390.69863,434 c -0.265,0 -0.75179,-1.0125 -1.08175,-2.25 z m 12.4907,-11.80867 c 3.89448,-6.20658 4.82862,-7.03918 10.69497,-9.53241 3.53528,-1.50252 7.61345,-3.71733 9.06261,-4.92182 5.05894,-4.20478 6.98767,-4.78823 11.57907,-3.50271 3.8906,1.08929 4.81567,0.92873 12.13373,-2.10609 8.43703,-3.49886 22.8003,-12.84806 24.43703,-15.9063 1.47042,-2.74752 1.22875,-3.53991 -1.45216,-4.76142 -1.34045,-0.61075 -4.23653,-3.38681 -6.43575,-6.16903 -3.34441,-4.23099 -3.91129,-5.59647 -3.46503,-8.34645 0.64679,-3.98571 -1.44743,-6.16044 -5.23512,-5.43638 -3.34838,0.64008 -3.86942,-0.84417 -2.69312,-7.67176 0.89624,-5.20201 0.79458,-5.65168 -2.3205,-10.26366 -6.8533,-10.14656 -23.94406,-23.06176 -33.53055,-25.33849 -4.59386,-1.09101 -6.36335,-2.27297 -12.07345,-8.06466 C 395.60298,300.61084 393.29722,299 390.04099,299 c -4.52772,0 -5.35441,9.63665 -1.53122,17.8493 1.36963,2.94211 2.49023,5.90063 2.49023,6.57448 0,2.04793 -10.89439,13.96137 -14.43753,15.78801 -4.0965,2.11191 -8.56247,7.27455 -8.56247,9.89818 0,1.07608 1.16389,4.25335 2.58642,7.06058 1.42254,2.80723 2.83351,7.62977 3.13551,10.71676 0.30199,3.08698 0.93276,6.10236 1.4017,6.70085 0.46895,0.59849 1.38123,4.48826 2.0273,8.64393 1.1054,7.11021 1.00808,8.19639 -1.65023,18.41911 -2.72522,10.48001 -2.76585,10.98659 -1.15143,14.35607 1.05776,2.20768 3.69301,4.7605 7.16256,6.93849 3.019,1.89517 6.67073,4.67912 8.11494,6.18656 l 2.62584,2.74079 2.79389,-2.06561 c 1.53663,-1.13608 4.71412,-5.12586 7.06108,-8.86617 z M 325.00401,267.25826 C 321.22826,266.80285 319,265.44226 319,263.59219 c 0,-0.63961 2.9924,-2.63854 6.64977,-4.44208 7.63868,-3.7668 9.08764,-3.28528 9.5148,3.16197 0.36062,5.443 -0.91064,6.06186 -10.16056,4.94618 z m 7.36653,-4.36097 c 0.3413,-1.70648 0.36469,-3.51668 0.052,-4.02266 C 331.81131,257.88568 322,262.80045 322,264.09557 c 0,0.68099 2.26505,1.16728 8.125,1.74439 1.07343,0.10572 1.83563,-0.89311 2.24554,-2.94267 z m 19.10432,-0.93797 c -0.35375,-0.57237 -1.44258,-0.78695 -2.41964,-0.47685 -0.99402,0.31549 -2.81497,-0.27709 -4.13427,-1.3454 -2.11219,-1.71035 -2.36458,-2.74926 -2.42286,-9.9733 -0.0358,-4.43523 -0.34894,-8.34796 -0.69592,-8.69494 -0.34698,-0.34698 -1.51802,-0.15609 -2.6023,0.4242 C 334.71526,244.29312 324,232.30973 324,224.89428 c 0,-2.02393 1.03962,-4.95995 2.53605,-7.16215 2.05425,-3.0231 3.14664,-3.72791 5.75,-3.70989 4.26553,0.0295 7.04306,2.44317 9.59499,8.33804 2.07577,4.79492 2.15458,4.85242 5.86151,4.27667 2.0666,-0.32098 6.2936,-0.87845 9.39333,-1.23882 l 5.63588,-0.65521 7.36412,7.46562 c 4.05027,4.10609 8.69777,8.10143 10.32779,8.87854 6.4305,3.06572 7.0691,9.71234 1.42816,14.86453 -3.1574,2.88385 -12.53196,5.7842 -15.28326,4.72842 -0.85829,-0.32935 -3.70884,0.053 -6.33455,0.84975 -5.68327,1.72446 -7.93104,1.83419 -8.79916,0.42954 z m 8.11621,-2.442 c 2.69991,-0.81548 5.71606,-1.22892 6.70255,-0.91877 2.9755,0.9355 11.7829,-1.86761 14.83954,-4.72294 2.75773,-2.57611 3.66144,-6.19845 2.10153,-8.42362 -0.40408,-0.57641 -2.7704,-2.22322 -5.25848,-3.65959 -2.48809,-1.43636 -7.05655,-5.35226 -10.15214,-8.70199 -6.24151,-6.75391 -7.15544,-7.00988 -16.82407,-4.71204 -3.025,0.71892 -6.07747,1.1104 -6.78327,0.86996 -0.7058,-0.24045 -2.59619,-3.03806 -4.20087,-6.21691 -3.98473,-7.89371 -8.22317,-9.35777 -11.94777,-4.12705 -2.95624,4.15167 -2.65547,8.98469 0.86126,13.8394 4.10634,5.66864 6.85829,7.3867 10.68266,6.66924 4.14748,-0.77807 4.64938,0.21884 4.87839,9.68977 0.20971,8.67346 1.28799,10.8534 5.01595,10.14076 1.45395,-0.27794 2.49365,-0.0111 2.49365,0.63988 0,1.49046 1.7187,1.40757 7.59107,-0.3661 z M 300,241.72392 c -2.09746,-1.06762 -2.54795,-2.0931 -2.79777,-6.36878 -0.22643,-3.87536 -0.88525,-5.64818 -2.75,-7.40002 -5.11876,-4.80882 -1.44009,-8.78022 6.96545,-7.51974 5.53636,0.83023 9.58936,4.03621 12.07718,9.55323 1.40153,3.10802 1.62328,4.77329 0.90688,6.81036 -1.52935,4.34869 -9.90607,7.21327 -14.40174,4.92495 z m 9.48152,-2.71689 c 4.84528,-1.84218 4.59094,-6.32245 -0.69944,-12.32102 -2.62405,-2.97531 -4.18429,-3.82675 -7.78208,-4.24676 -6.60185,-0.7707 -7.99584,0.58855 -4.6642,4.54798 1.99687,2.37314 2.6642,4.26172 2.6642,7.53981 0,6.36856 2.5959,7.47809 10.48152,4.47999 z M 301,208 c -5.33854,-2.77677 -8.79688,-3.91779 -12,-3.9592 -8.32499,-0.10764 -15.16238,-1.30039 -15.71538,-2.74147 -0.29569,-0.77056 0.90874,-3.20083 2.67652,-5.4006 1.76778,-2.19976 2.96936,-4.63747 2.67018,-5.41712 -0.79458,-2.07063 0.99018,-2.75454 3.57637,-1.37046 1.23696,0.662 6.04193,2.24717 10.67771,3.5226 7.94198,2.18506 8.50648,2.21928 9.77594,0.59261 1.24661,-1.59741 1.52966,-1.50607 3.78935,1.22283 2.1899,2.64463 3.14473,2.98678 9.24571,3.31311 7.26419,0.38855 12.3036,1.82778 12.3036,3.51386 0,2.02 -8.03909,8.64072 -11.73971,9.66842 C 310.59793,212.51707 309.14563,212.23684 301,208 Z m 16.5,0.11927 c 4.60818,-2.11609 7.99427,-5.5105 7.03894,-7.05626 -0.36133,-0.58465 -2.99292,-1.06552 -5.84796,-1.06859 -6.62107,-0.007 -12.31962,-1.58429 -13.10332,-3.62658 -0.47548,-1.23908 -0.92131,-1.33583 -2.00628,-0.43538 -1.07124,0.88905 -3.31997,0.66622 -9.68997,-0.96018 -4.56225,-1.16485 -9.19518,-2.59967 -10.2954,-3.18849 -1.42903,-0.76479 -2.10392,-0.76006 -2.3628,0.0166 -0.19932,0.59795 -1.72458,2.79998 -3.38947,4.8934 l -3.02707,3.80623 3.84166,0.69237 c 2.11292,0.3808 6.54167,0.74057 9.84167,0.79949 4.90159,0.0875 7.37301,0.82127 13.5,4.00814 8.57101,4.45809 9.98558,4.6515 15.5,2.11927 z m -77.4159,-26.51793 c -0.92444,-1.11389 -1.76897,-1.1691 -4.14788,-0.27116 -2.27719,0.85954 -3.39695,0.83489 -4.71166,-0.10373 -0.94851,-0.67717 -2.8404,-1.7083 -4.20421,-2.2914 -1.3638,-0.58309 -2.81011,-1.59452 -3.214,-2.24761 C 223.34126,175.93541 220.21705,175.5 215.28599,175.5 207.01166,175.5 205,174.8657 205,172.25671 c 0,-0.89389 -0.9,-3.56734 -2,-5.94099 -1.1,-2.37364 -2.93418,-6.32839 -4.07595,-8.78833 -1.14177,-2.45993 -1.76377,-4.97771 -1.38222,-5.59507 0.38154,-0.61735 -0.27988,-2.43932 -1.46983,-4.04881 -3.18377,-4.30628 -1.92873,-5.25033 6.00021,-4.51342 l 6.79273,0.63132 3.62395,-4.42255 C 215.70374,135.65556 220.11683,133 223.42182,133 c 1.2754,0 4.13289,5.21728 4.96932,9.0731 0.30699,1.41521 1.73087,4.30118 3.16418,6.41327 2.03712,3.00188 2.46993,4.5655 1.98266,7.16289 -0.35063,1.86899 -0.11433,4.27382 0.5401,5.49663 1.03954,1.94241 1.26237,1.99715 2.09237,0.51401 0.89889,-1.60622 4.86611,-2.29001 6.10403,-1.05209 0.33429,0.3343 0.11441,1.39787 -0.48863,2.36349 -0.85011,1.36124 -0.6019,2.77723 1.10481,6.30283 1.21068,2.50094 2.85556,4.79824 3.65529,5.10513 2.07053,0.79454 1.81624,2.03686 -1.13484,5.54401 -2.90303,3.45006 -3.6588,3.68813 -5.32701,1.67807 z M 236.5,179.05535 c 1.1,-0.44225 2.82493,-0.37475 3.83319,0.14999 2.50945,1.30603 6.56325,-2.06424 4.41467,-3.6703 -1.25924,-0.94128 -4.9131,-7.84462 -6.10536,-11.53504 -0.37419,-1.15823 -0.50259,-1.10127 -0.56355,0.25 -0.12777,2.83228 -2.94734,2.00839 -5.13341,-1.5 -1.52763,-2.45167 -1.88425,-4.24845 -1.45182,-7.31471 0.46396,-3.28973 0.18112,-4.41958 -1.48347,-5.92601 -1.13119,-1.02372 -2.74224,-4.21941 -3.58009,-7.10153 -2.62733,-9.0377 -5.17728,-9.17882 -13.07739,-0.72375 l -4.14722,4.43857 -6.08984,-0.68899 -6.08983,-0.68898 1.55395,3.11496 c 0.85467,1.71323 1.29192,3.53894 0.97167,4.05712 -0.32026,0.51818 0.92495,4.23641 2.76713,8.26273 1.84217,4.02633 3.77342,8.67059 4.29166,10.32059 l 0.94225,3 9.76316,-0.16191 c 8.68045,-0.14395 9.70705,0.0224 9.25719,1.5 -0.34692,1.13948 0.50517,2.1695 2.71057,3.2766 3.79502,1.90509 4.56731,2.00576 7.21654,0.94066 z M 27.666667,105.33333 c -1.346777,-1.34677 -0.609093,-6.31659 1.457489,-9.819185 1.168285,-1.980097 3.853239,-4.482289 5.966564,-5.560427 2.113325,-1.078138 4.323287,-2.858781 4.911028,-3.956984 1.127902,-2.107504 5.41583,-2.74813 6.512895,-0.973042 0.64567,1.044717 -2.089215,9.463654 -3.809283,11.726308 -0.522637,0.6875 -1.760084,1.25 -2.749881,1.25 -0.989798,0 -3.340366,1.8 -5.223484,4 -3.224843,3.7675 -5.539249,4.85941 -7.065328,3.33333 z m 6.008119,-5.26649 c 1.851653,-2.163243 4.357597,-4.075743 5.568765,-4.250003 C 42.031678,95.415687 46.067145,86 43.450946,86 c -0.832543,0 -1.780093,0.694169 -2.105666,1.542597 -0.325572,0.848428 -2.291102,2.409439 -4.367843,3.468914 C 32.915642,93.083684 29,98.412495 29,101.86803 c 0,3.00665 0.834754,2.68502 4.674786,-1.80119 z m 56.499997,2.87784 C 86.011648,101.74111 82.359586,99.814396 79.4906,97.308027 77.09317,95.213612 73.752018,92.453274 72.065818,91.173942 69.598463,89.301941 69,88.112165 69,85.078929 c 0,-2.518921 0.67404,-4.378951 2.032286,-5.608148 1.117758,-1.011556 2.900261,-3.243605 3.961118,-4.960108 1.429346,-2.312731 3.354344,-3.570269 7.43364,-4.856153 3.027645,-0.954381 5.7717,-2.167077 6.097899,-2.694879 0.721502,-1.167414 5.160143,-1.2782 5.859723,-0.146256 0.276485,0.447362 2.99873,0.714303 6.049434,0.593201 6.87335,-0.272848 11.32071,2.353895 13.44782,7.942688 1.37644,3.616489 1.3125,4.103813 -1.21449,9.256253 C 111.20034,87.596856 110,91.29833 110,92.831024 c 0,3.324655 -1.2163,5.061016 -6.3875,9.118626 -4.416955,3.46578 -4.794635,3.49375 -13.437717,0.99503 z M 103.5817,99.379538 C 107.09799,96.498203 108,95.118548 108,92.621581 c 0,-1.725622 1.16167,-5.319683 2.58149,-7.986803 2.90509,-5.457209 2.70492,-8.027709 -0.95663,-12.284518 -2.08665,-2.425874 -3.10214,-2.759122 -8.74286,-2.869107 -3.510101,-0.06844 -7.125872,-0.461104 -8.035048,-0.872581 -0.990322,-0.448203 -3.195338,0.02477 -5.5,1.179743 C 85.231128,70.848652 82.375,71.991296 81,72.327524 77.927386,73.078868 71,82.189395 71,85.478988 71,87.869115 73.321518,91 75.093772,91 c 0.523003,0 3.022093,1.9125 5.553534,4.25 3.122023,2.882836 6.412112,4.77492 10.227657,5.88179 7.843357,2.27531 7.78117,2.28388 12.706737,-1.752252 z"
       id="path1" />
  </g>
</svg>
