<?xml version="1.0" encoding="UTF-8" standalone="no"?>
<!-- Created with Inkscape (http://www.inkscape.org/) -->

<svg
   width="210mm"
   height="297mm"
   viewBox="0 0 210 297"
   version="1.1"
   id="svg1"
   xml:space="preserve"
   inkscape:export-filename="3color.png"
   inkscape:export-xdpi="96"
   inkscape:export-ydpi="96"
   inkscape:version="1.4.3 (0d15f75042, 2025-12-25)"
   sodipodi:docname="drawing.svg"
   xmlns:inkscape="http://www.inkscape.org/namespaces/inkscape"
   xmlns:sodipodi="http://sodipodi.sourceforge.net/DTD/sodipodi-0.dtd"
   xmlns="http://www.w3.org/2000/svg"
   xmlns:svg="http://www.w3.org/2000/svg"><sodipodi:namedview
     id="namedview1"
     pagecolor="#ffffff"
     bordercolor="#000000"
     borderopacity="0.25"
     inkscape:showpageshadow="2"
     inkscape:pageopacity="0.0"
     inkscape:pagecheckerboard="0"
     inkscape:deskcolor="#d1d1d1"
     inkscape:document-units="mm"
     inkscape:zoom="1.5136711"
     inkscape:cx="319.75242"
     inkscape:cy="391.76278"
     inkscape:window-width="1078"
     inkscape:window-height="1003"
     inkscape:window-x="26"
     inkscape:window-y="23"
     inkscape:window-maximized="0"
     inkscape:current-layer="layer1"
     showgrid="true"><inkscape:grid
       id="grid5"
       units="mm"
       originx="0"
       originy="0"
       spacingx="0.99999998"
       spacingy="1"
       empcolor="#0099e5"
       empopacity="0.30196078"
       color="#0099e5"
       opacity="0.14901961"
       empspacing="5"
       enabled="true"
       visible="true" /></sodipodi:namedview><defs
     id="defs1" /><g
     inkscape:groupmode="layer"
     id="layer2"
     inkscape:label="TOWER"
     transform="translate(-16.441977,-33.615526)"
     inkscape:export-filename="../../JasonFantl.github.io/assets/img/posts/tmp/3color.png"
     inkscape:export-xdpi="96"
     inkscape:export-ydpi="96"><path
       sodipodi:type="star"
       style="fill:none;fill-opacity:1;stroke:#000000;stroke-width:0.7;stroke-dasharray:none;stroke-opacity:1"
       id="path1-3-4"
       inkscape:flatsided="true"
       sodipodi:sides="6"
       sodipodi:cx="55.081966"
       sodipodi:cy="67.868851"
       sodipodi:r1="22.451237"
       sodipodi:r2="19.443342"
       sodipodi:arg1="1.0471976"
       sodipodi:arg2="1.5707963"
       inkscape:rounded="0"
       inkscape:randomized="0"
       d="M 66.307584,87.312193 43.856347,87.312192 32.63073,67.86885 43.856349,48.425509 l 22.451237,1e-6 11.225617,19.443342 z"
       transform="translate(68.160346,70.427996)"
       inkscape:export-filename="../../JasonFantl.github.io/assets/img/posts/tmp/cell-resource.svg"
       inkscape:export-xdpi="96"
       inkscape:export-ydpi="96" /><path
       style="fill:none;fill-opacity:0.623233;stroke:#000000;stroke-width:0.5;stroke-dasharray:none;stroke-opacity:1"
       d="m 134.39444,119.11657 -22.28133,38.46084"
       id="path3"
       sodipodi:nodetypes="cc" /><path
       style="fill:none;fill-opacity:0.623233;stroke:#000000;stroke-width:0.5;stroke-dasharray:none;stroke-opacity:1"
       d="m 112.00738,118.86993 22.4453,38.79201"
       id="path4" /><path
       style="fill:none;fill-opacity:0.623233;stroke:#000000;stroke-width:0.5;stroke-dasharray:none;stroke-opacity:1"
       d="m 145.51814,138.29737 -44.57623,-0.0629"
       id="path5" /><text
       xml:space="preserve"
       style="font-style:normal;font-variant:normal;font-weight:normal;font-stretch:normal;font-size:4.23333px;font-family:'Adwaita Mono';-inkscape-font-specification:'Adwaita Mono';writing-mode:lr-tb;direction:ltr;fill:#000000;fill-opacity:1;stroke:none;stroke-width:0.2;stroke-linejoin:round;stroke-dasharray:none;stroke-opacity:1"
       x="90.116089"
       y="114.46059"
       id="text5"><tspan
         sodipodi:role="line"
         id="tspan5"
         style="font-style:normal;font-variant:normal;font-weight:normal;font-stretch:normal;font-size:4.23333px;font-family:'Droid Sans';-inkscape-font-specification:'Droid Sans';fill:#000000;fill-opacity:1;stroke:none;stroke-width:0.2"
         x="90.116089"
         y="114.46059">Time</tspan></text><text
       xml:space="preserve"
       style="font-style:normal;font-variant:normal;font-weight:normal;font-stretch:normal;font-size:4.23333px;font-family:'Adwaita Mono';-inkscape-font-specification:'Adwaita Mono';writing-mode:lr-tb;direction:ltr;fill:#000000;fill-opacity:1;stroke:none;stroke-width:0.2;stroke-linejoin:round;stroke-dasharray:none;stroke-opacity:1"
       x="79.39296"
       y="123.15233"
       id="text5-9"><tspan
         sodipodi:role="line"
         id="tspan5-0"
         style="font-style:normal;font-variant:normal;font-weight:normal;font-stretch:normal;font-size:4.23333px;font-family:'Droid Sans';-inkscape-font-specification:'Droid Sans';fill:#000000;fill-opacity:1;stroke:none;stroke-width:0.2"
         x="79.39296"
         y="123.15233">λ</tspan></text><rect
       style="fill:#454cb3;fill-opacity:1;stroke:#000000;stroke-width:0.2;stroke-linejoin:round;stroke-dasharray:none;stroke-opacity:1"
       id="rect5-8"
       width="6.0603905"
       height="3.3289411"
       x="84.650406"
       y="116.20956" /><rect
       style="fill:#45b3aa;fill-opacity:1;stroke:#000000;stroke-width:0.2;stroke-linejoin:round;stroke-dasharray:none;stroke-opacity:1"
       id="rect5-7-8"
       width="6.0603905"
       height="3.3289411"
       x="84.630432"
       y="119.83014" /><rect
       style="fill:#b34945;fill-opacity:1;stroke:#000000;stroke-width:0.2;stroke-linejoin:round;stroke-dasharray:none;stroke-opacity:1"
       id="rect5-7-6-3"
       width="6.0603905"
       height="3.3289411"
       x="84.631653"
       y="123.45189" /><rect
       style="fill:#b2b345;fill-opacity:1;stroke:#000000;stroke-width:0.2;stroke-linejoin:round;stroke-dasharray:none;stroke-opacity:1"
       id="rect5-5-1"
       width="6.0603905"
       height="3.3289411"
       x="91.065697"
       y="116.20768" /><rect
       style="fill:#b345a1;fill-opacity:1;stroke:#000000;stroke-width:0.2;stroke-linejoin:round;stroke-dasharray:none;stroke-opacity:1"
       id="rect5-7-9-8"
       width="6.0603905"
       height="3.3289411"
       x="91.045715"
       y="119.82826" /><rect
       style="fill:#82b345;fill-opacity:1;stroke:#000000;stroke-width:0.2;stroke-linejoin:round;stroke-dasharray:none;stroke-opacity:1"
       id="rect5-7-6-4-9"
       width="6.0603905"
       height="3.3289411"
       x="91.046936"
       y="123.45001" /><rect
       style="fill:#459ab3;fill-opacity:1;stroke:#000000;stroke-width:0.2;stroke-linejoin:round;stroke-dasharray:none;stroke-opacity:1"
       id="rect5-77-6"
       width="6.0603905"
       height="3.3289411"
       x="97.477303"
       y="116.21293" /><rect
       style="fill:#b34945;fill-opacity:1;stroke:#000000;stroke-width:0.2;stroke-linejoin:round;stroke-dasharray:none;stroke-opacity:1"
       id="rect5-7-1-4"
       width="6.0603905"
       height="3.3289411"
       x="97.457321"
       y="119.83351" /><rect
       style="fill:#b38945;fill-opacity:1;stroke:#000000;stroke-width:0.2;stroke-linejoin:round;stroke-dasharray:none;stroke-opacity:1"
       id="rect5-7-6-1-3"
       width="6.0603905"
       height="3.3289411"
       x="97.458542"
       y="123.45525" /><path
       style="fill:#000000;fill-opacity:1;stroke:#000000;stroke-width:0.2;stroke-linejoin:round;stroke-dasharray:none;stroke-opacity:1"
       d="m 87.242718,114.95631 c 14.337272,0 14.337272,0 14.337272,0"
       id="path6" /><path
       style="fill:#000000;fill-opacity:1;stroke:#000000;stroke-width:0.2;stroke-linecap:round;stroke-linejoin:round;stroke-dasharray:none;stroke-opacity:1"
       d="m 101.54114,114.9716 -0.99139,0.62932"
       id="path7"
       sodipodi:nodetypes="cc" /><path
       style="fill:#000000;fill-opacity:1;stroke:#000000;stroke-width:0.2;stroke-linecap:round;stroke-linejoin:round;stroke-dasharray:none;stroke-opacity:1"
       d="m 101.54482,114.92685 -0.99139,-0.62932"
       id="path7-3"
       sodipodi:nodetypes="cc" /><path
       style="fill:#000000;fill-opacity:1;stroke:#000000;stroke-width:0.2;stroke-linejoin:round;stroke-dasharray:none;stroke-opacity:1"
       d="m 83.367358,116.69108 v 9.60338"
       id="path6-9"
       sodipodi:nodetypes="cc" /><path
       style="fill:#000000;fill-opacity:1;stroke:#000000;stroke-width:0.2;stroke-linecap:round;stroke-linejoin:round;stroke-dasharray:none;stroke-opacity:1"
       d="m 83.352068,126.25561 -0.62932,-0.99139"
       id="path7-33"
       sodipodi:nodetypes="cc" /><path
       style="fill:#000000;fill-opacity:1;stroke:#000000;stroke-width:0.2;stroke-linecap:round;stroke-linejoin:round;stroke-dasharray:none;stroke-opacity:1"
       d="m 83.396818,126.25929 0.62932,-0.99139"
       id="path7-3-8"
       sodipodi:nodetypes="cc" /><rect
       style="fill:#454cb3;fill-opacity:1;stroke:#000000;stroke-width:0.0602667;stroke-linejoin:round;stroke-dasharray:none;stroke-opacity:1"
       id="rect5-8-2"
       width="1.8261913"
       height="1.0031174"
       x="-137.62131"
       y="131.02856"
       transform="scale(-1,1)" /><rect
       style="fill:#45b3aa;fill-opacity:1;stroke:#000000;stroke-width:0.0602667;stroke-linejoin:round;stroke-dasharray:none;stroke-opacity:1"
       id="rect5-7-8-6"
       width="1.8261913"
       height="1.0031174"
       x="-137.62732"
       y="132.11955"
       transform="scale(-1,1)" /><rect
       style="fill:#b34945;fill-opacity:1;stroke:#000000;stroke-width:0.0602667;stroke-linejoin:round;stroke-dasharray:none;stroke-opacity:1"
       id="rect5-7-6-3-7"
       width="1.8261913"
       height="1.0031174"
       x="-137.62697"
       y="133.21091"
       transform="scale(-1,1)" /><rect
       style="fill:#b2b345;fill-opacity:1;stroke:#000000;stroke-width:0.0602667;stroke-linejoin:round;stroke-dasharray:none;stroke-opacity:1"
       id="rect5-5-1-5"
       width="1.8261913"
       height="1.0031174"
       x="-135.68819"
       y="131.02798"
       transform="scale(-1,1)" /><rect
       style="fill:#b345a1;fill-opacity:1;stroke:#000000;stroke-width:0.0602667;stroke-linejoin:round;stroke-dasharray:none;stroke-opacity:1"
       id="rect5-7-9-8-6"
       width="1.8261913"
       height="1.0031174"
       x="-135.6942"
       y="132.11899"
       transform="scale(-1,1)" /><rect
       style="fill:#82b345;fill-opacity:1;stroke:#000000;stroke-width:0.0602667;stroke-linejoin:round;stroke-dasharray:none;stroke-opacity:1"
       id="rect5-7-6-4-9-9"
       width="1.8261913"
       height="1.0031174"
       x="-135.69382"
       y="133.21034"
       transform="scale(-1,1)" /><rect
       style="fill:#459ab3;fill-opacity:1;stroke:#000000;stroke-width:0.0602667;stroke-linejoin:round;stroke-dasharray:none;stroke-opacity:1"
       id="rect5-77-6-8"
       width="1.8261913"
       height="1.0031174"
       x="-133.75615"
       y="131.02957"
       transform="scale(-1,1)" /><rect
       style="fill:#b34945;fill-opacity:1;stroke:#000000;stroke-width:0.0602667;stroke-linejoin:round;stroke-dasharray:none;stroke-opacity:1"
       id="rect5-7-1-4-7"
       width="1.8261913"
       height="1.0031174"
       x="-133.76218"
       y="132.12056"
       transform="scale(-1,1)" /><rect
       style="fill:#b38945;fill-opacity:1;stroke:#000000;stroke-width:0.0602667;stroke-linejoin:round;stroke-dasharray:none;stroke-opacity:1"
       id="rect5-7-6-1-3-2"
       width="1.8261913"
       height="1.0031174"
       x="-133.76181"
       y="133.21191"
       transform="scale(-1,1)" /><rect
       style="fill:#454cb3;fill-opacity:1;stroke:#000000;stroke-width:0.0602667;stroke-linejoin:round;stroke-dasharray:none;stroke-opacity:1"
       id="rect5-8-2-8"
       width="1.8261913"
       height="1.0031174"
       x="-136.72804"
       y="-145.84045"
       transform="scale(-1)" /><rect
       style="fill:#45b3aa;fill-opacity:1;stroke:#000000;stroke-width:0.0602667;stroke-linejoin:round;stroke-dasharray:none;stroke-opacity:1"
       id="rect5-7-8-6-7"
       width="1.8261913"
       height="1.0031174"
       x="-136.73405"
       y="-144.74947"
       transform="scale(-1)" /><rect
       style="fill:#b34945;fill-opacity:1;stroke:#000000;stroke-width:0.0602667;stroke-linejoin:round;stroke-dasharray:none;stroke-opacity:1"
       id="rect5-7-6-3-7-0"
       width="1.8261913"
       height="1.0031174"
       x="-136.7337"
       y="-143.65811"
       transform="scale(-1)" /><rect
       style="fill:#b2b345;fill-opacity:1;stroke:#000000;stroke-width:0.0602667;stroke-linejoin:round;stroke-dasharray:none;stroke-opacity:1"
       id="rect5-5-1-5-4"
       width="1.8261913"
       height="1.0031174"
       x="-134.79492"
       y="-145.84103"
       transform="scale(-1)" /><rect
       style="fill:#b345a1;fill-opacity:1;stroke:#000000;stroke-width:0.0602667;stroke-linejoin:round;stroke-dasharray:none;stroke-opacity:1"
       id="rect5-7-9-8-6-8"
       width="1.8261913"
       height="1.0031174"
       x="-134.80093"
       y="-144.75003"
       transform="scale(-1)" /><rect
       style="fill:#82b345;fill-opacity:1;stroke:#000000;stroke-width:0.0602667;stroke-linejoin:round;stroke-dasharray:none;stroke-opacity:1"
       id="rect5-7-6-4-9-9-0"
       width="1.8261913"
       height="1.0031174"
       x="-134.80055"
       y="-143.65868"
       transform="scale(-1)" /><rect
       style="fill:#459ab3;fill-opacity:1;stroke:#000000;stroke-width:0.0602667;stroke-linejoin:round;stroke-dasharray:none;stroke-opacity:1"
       id="rect5-77-6-8-4"
       width="1.8261913"
       height="1.0031174"
       x="-132.86288"
       y="-145.83945"
       transform="scale(-1)" /><rect
       style="fill:#b34945;fill-opacity:1;stroke:#000000;stroke-width:0.0602667;stroke-linejoin:round;stroke-dasharray:none;stroke-opacity:1"
       id="rect5-7-1-4-7-2"
       width="1.8261913"
       height="1.0031174"
       x="-132.86891"
       y="-144.74846"
       transform="scale(-1)" /><rect
       style="fill:#b38945;fill-opacity:1;stroke:#000000;stroke-width:0.0602667;stroke-linejoin:round;stroke-dasharray:none;stroke-opacity:1"
       id="rect5-7-6-1-3-2-96"
       width="1.8261913"
       height="1.0031174"
       x="-132.86855"
       y="-143.6571"
       transform="scale(-1)" /><rect
       style="fill:#454cb3;fill-opacity:1;stroke:#000000;stroke-width:0.0602667;stroke-linejoin:round;stroke-dasharray:none;stroke-opacity:1"
       id="rect5-8-2-2"
       width="1.8261913"
       height="1.0031174"
       x="-126.4093"
       y="150.06291"
       transform="scale(-1,1)" /><rect
       style="fill:#45b3aa;fill-opacity:1;stroke:#000000;stroke-width:0.0602667;stroke-linejoin:round;stroke-dasharray:none;stroke-opacity:1"
       id="rect5-7-8-6-20"
       width="1.8261913"
       height="1.0031174"
       x="-126.41531"
       y="151.1539"
       transform="scale(-1,1)" /><rect
       style="fill:#b34945;fill-opacity:1;stroke:#000000;stroke-width:0.0602667;stroke-linejoin:round;stroke-dasharray:none;stroke-opacity:1"
       id="rect5-7-6-3-7-5"
       width="1.8261913"
       height="1.0031174"
       x="-126.41496"
       y="152.24525"
       transform="scale(-1,1)" /><rect
       style="fill:#b2b345;fill-opacity:1;stroke:#000000;stroke-width:0.0602667;stroke-linejoin:round;stroke-dasharray:none;stroke-opacity:1"
       id="rect5-5-1-5-52"
       width="1.8261913"
       height="1.0031174"
       x="-124.47618"
       y="150.06233"
       transform="scale(-1,1)" /><rect
       style="fill:#b345a1;fill-opacity:1;stroke:#000000;stroke-width:0.0602667;stroke-linejoin:round;stroke-dasharray:none;stroke-opacity:1"
       id="rect5-7-9-8-6-90"
       width="1.8261913"
       height="1.0031174"
       x="-124.48219"
       y="151.15334"
       transform="scale(-1,1)" /><rect
       style="fill:#82b345;fill-opacity:1;stroke:#000000;stroke-width:0.0602667;stroke-linejoin:round;stroke-dasharray:none;stroke-opacity:1"
       id="rect5-7-6-4-9-9-2"
       width="1.8261913"
       height="1.0031174"
       x="-124.48181"
       y="152.24469"
       transform="scale(-1,1)" /><rect
       style="fill:#459ab3;fill-opacity:1;stroke:#000000;stroke-width:0.0602667;stroke-linejoin:round;stroke-dasharray:none;stroke-opacity:1"
       id="rect5-77-6-8-8"
       width="1.8261913"
       height="1.0031174"
       x="-122.54414"
       y="150.06392"
       transform="scale(-1,1)" /><rect
       style="fill:#b34945;fill-opacity:1;stroke:#000000;stroke-width:0.0602667;stroke-linejoin:round;stroke-dasharray:none;stroke-opacity:1"
       id="rect5-7-1-4-7-3"
       width="1.8261913"
       height="1.0031174"
       x="-122.55017"
       y="151.15491"
       transform="scale(-1,1)" /><rect
       style="fill:#b38945;fill-opacity:1;stroke:#000000;stroke-width:0.0602667;stroke-linejoin:round;stroke-dasharray:none;stroke-opacity:1"
       id="rect5-7-6-1-3-2-8"
       width="1.8261913"
       height="1.0031174"
       x="-122.5498"
       y="152.24626"
       transform="scale(-1,1)" /><rect
       style="fill:#454cb3;fill-opacity:1;stroke:#000000;stroke-width:0.0602667;stroke-linejoin:round;stroke-dasharray:none;stroke-opacity:1"
       id="rect5-8-2-1"
       width="1.8261913"
       height="1.0031174"
       x="108.55312"
       y="-145.84045"
       transform="scale(1,-1)" /><rect
       style="fill:#45b3aa;fill-opacity:1;stroke:#000000;stroke-width:0.0602667;stroke-linejoin:round;stroke-dasharray:none;stroke-opacity:1"
       id="rect5-7-8-6-9"
       width="1.8261913"
       height="1.0031174"
       x="108.54711"
       y="-144.74947"
       transform="scale(1,-1)" /><rect
       style="fill:#b34945;fill-opacity:1;stroke:#000000;stroke-width:0.0602667;stroke-linejoin:round;stroke-dasharray:none;stroke-opacity:1"
       id="rect5-7-6-3-7-6"
       width="1.8261913"
       height="1.0031174"
       x="108.54746"
       y="-143.65811"
       transform="scale(1,-1)" /><rect
       style="fill:#b2b345;fill-opacity:1;stroke:#000000;stroke-width:0.0602667;stroke-linejoin:round;stroke-dasharray:none;stroke-opacity:1"
       id="rect5-5-1-5-2"
       width="1.8261913"
       height="1.0031174"
       x="110.48624"
       y="-145.84103"
       transform="scale(1,-1)" /><rect
       style="fill:#b345a1;fill-opacity:1;stroke:#000000;stroke-width:0.0602667;stroke-linejoin:round;stroke-dasharray:none;stroke-opacity:1"
       id="rect5-7-9-8-6-5"
       width="1.8261913"
       height="1.0031174"
       x="110.48023"
       y="-144.75003"
       transform="scale(1,-1)" /><rect
       style="fill:#82b345;fill-opacity:1;stroke:#000000;stroke-width:0.0602667;stroke-linejoin:round;stroke-dasharray:none;stroke-opacity:1"
       id="rect5-7-6-4-9-9-4"
       width="1.8261913"
       height="1.0031174"
       x="110.48061"
       y="-143.65868"
       transform="scale(1,-1)" /><rect
       style="fill:#459ab3;fill-opacity:1;stroke:#000000;stroke-width:0.0602667;stroke-linejoin:round;stroke-dasharray:none;stroke-opacity:1"
       id="rect5-77-6-8-49"
       width="1.8261913"
       height="1.0031174"
       x="112.41828"
       y="-145.83945"
       transform="scale(1,-1)" /><rect
       style="fill:#b34945;fill-opacity:1;stroke:#000000;stroke-width:0.0602667;stroke-linejoin:round;stroke-dasharray:none;stroke-opacity:1"
       id="rect5-7-1-4-7-9"
       width="1.8261913"
       height="1.0031174"
       x="112.41225"
       y="-144.74846"
       transform="scale(1,-1)" /><rect
       style="fill:#b38945;fill-opacity:1;stroke:#000000;stroke-width:0.0602667;stroke-linejoin:round;stroke-dasharray:none;stroke-opacity:1"
       id="rect5-7-6-1-3-2-3"
       width="1.8261913"
       height="1.0031174"
       x="112.41262"
       y="-143.6571"
       transform="scale(1,-1)" /><rect
       style="fill:#454cb3;fill-opacity:1;stroke:#000000;stroke-width:0.0602667;stroke-linejoin:round;stroke-dasharray:none;stroke-opacity:1"
       id="rect5-8-2-29"
       width="1.8261913"
       height="1.0031174"
       x="110.14062"
       y="130.48373" /><rect
       style="fill:#45b3aa;fill-opacity:1;stroke:#000000;stroke-width:0.0602667;stroke-linejoin:round;stroke-dasharray:none;stroke-opacity:1"
       id="rect5-7-8-6-4"
       width="1.8261913"
       height="1.0031174"
       x="110.13461"
       y="131.57472" /><rect
       style="fill:#b34945;fill-opacity:1;stroke:#000000;stroke-width:0.0602667;stroke-linejoin:round;stroke-dasharray:none;stroke-opacity:1"
       id="rect5-7-6-3-7-3"
       width="1.8261913"
       height="1.0031174"
       x="110.13496"
       y="132.66608" /><rect
       style="fill:#b2b345;fill-opacity:1;stroke:#000000;stroke-width:0.0602667;stroke-linejoin:round;stroke-dasharray:none;stroke-opacity:1"
       id="rect5-5-1-5-51"
       width="1.8261913"
       height="1.0031174"
       x="112.07375"
       y="130.48315" /><rect
       style="fill:#b345a1;fill-opacity:1;stroke:#000000;stroke-width:0.0602667;stroke-linejoin:round;stroke-dasharray:none;stroke-opacity:1"
       id="rect5-7-9-8-6-7"
       width="1.8261913"
       height="1.0031174"
       x="112.06773"
       y="131.57416" /><rect
       style="fill:#82b345;fill-opacity:1;stroke:#000000;stroke-width:0.0602667;stroke-linejoin:round;stroke-dasharray:none;stroke-opacity:1"
       id="rect5-7-6-4-9-9-43"
       width="1.8261913"
       height="1.0031174"
       x="112.06812"
       y="132.66551" /><rect
       style="fill:#459ab3;fill-opacity:1;stroke:#000000;stroke-width:0.0602667;stroke-linejoin:round;stroke-dasharray:none;stroke-opacity:1"
       id="rect5-77-6-8-14"
       width="1.8261913"
       height="1.0031174"
       x="114.00578"
       y="130.48474" /><rect
       style="fill:#b34945;fill-opacity:1;stroke:#000000;stroke-width:0.0602667;stroke-linejoin:round;stroke-dasharray:none;stroke-opacity:1"
       id="rect5-7-1-4-7-6"
       width="1.8261913"
       height="1.0031174"
       x="113.99976"
       y="131.57573" /><rect
       style="fill:#b38945;fill-opacity:1;stroke:#000000;stroke-width:0.0602667;stroke-linejoin:round;stroke-dasharray:none;stroke-opacity:1"
       id="rect5-7-6-1-3-2-94"
       width="1.8261913"
       height="1.0031174"
       x="114.00012"
       y="132.66708" /><path
       style="fill:#45b3aa;fill-opacity:1;stroke:#000000;stroke-width:0.2;stroke-linecap:round;stroke-linejoin:round;stroke-dasharray:none;stroke-opacity:1"
       d="M 115.53617,129.50784 104.86322,116.20771"
       id="path8"
       sodipodi:nodetypes="cc" /><path
       style="fill:#45b3aa;fill-opacity:1;stroke:#000000;stroke-width:0.2;stroke-linecap:round;stroke-linejoin:round;stroke-dasharray:none;stroke-opacity:1"
       d="M 109.21451,133.69492 84.666728,128.11214"
       id="path9"
       sodipodi:nodetypes="cc" /></g><g
     inkscape:groupmode="layer"
     id="layer4"
     inkscape:label="blue" /><g
     inkscape:groupmode="layer"
     id="layer3"
     inkscape:label="green" /><g
     inkscape:label="towers"
     inkscape:groupmode="layer"
     id="layer1"
     transform="translate(7.1788345,5.0251842)"
     style="fill:#ffffff;fill-opacity:0.6232332;stroke:none;stroke-opacity:1"><path
       style="fill:#5a5a5a;fill-opacity:1;stroke:none;stroke-opacity:1"
       d="m 93.85114,96.753037 c -0.12509,-0.19092 -0.001,-0.68772 2.32638,-9.329025 1.35219,-5.02005 2.45852,-9.17745 2.45852,-9.23867 0,-0.0612 -0.0368,-0.11132 -0.0817,-0.11132 -0.15525,0 -0.69079,-0.53535 -0.85236,-0.85205 -0.69864,-1.36945 0.28936,-2.9897 1.82307,-2.9897 1.53371,0 2.52172,1.62025 1.82308,2.9897 -0.16157,0.3167 -0.69712,0.85205 -0.85236,0.85205 -0.045,0 -0.0817,0.0496 -0.0817,0.11022 0,0.0606 1.10598,4.21855 2.45774,9.23985 2.32133,8.622875 2.45046,9.140755 2.32639,9.330115 -0.22389,0.3417 -0.6694,0.21487 -0.82847,-0.23585 -0.0276,-0.0781 -1.10983,-0.67333 -2.44814,-1.346415 l -2.39872,-1.20641 -2.39604,1.20672 c -1.96864,0.991475 -2.41116,1.246445 -2.48071,1.429365 -0.15447,0.40629 -0.5754,0.48647 -0.79494,0.15142 z m 3.01382,-2.116465 c 0.99738,-0.50661 1.84692,-0.9516 1.88788,-0.98887 0.041,-0.0373 -0.58226,-0.39655 -1.38492,-0.79841 -0.80267,-0.40185 -1.47446,-0.71559 -1.49286,-0.69718 -0.0391,0.0391 -0.45013,1.49254 -0.70376,2.48875 -0.0969,0.38052 -0.20121,0.75719 -0.23186,0.83706 -0.07,0.1824 -0.21273,0.24476 1.92552,-0.84135 z m 7.23541,0.80465 c -0.0277,-0.0873 -0.23757,-0.85342 -0.46633,-1.7024 -0.22876,-0.84898 -0.43315,-1.56083 -0.45421,-1.58189 -0.0211,-0.0211 -0.69417,0.29008 -1.4958,0.69142 -0.80164,0.40134 -1.43189,0.75534 -1.40056,0.78667 0.0718,0.0719 3.7044,1.94176 3.7981,1.95513 0.0381,0.005 0.0465,-0.0616 0.0188,-0.14893 z m -3.11627,-2.90847 c 0.75592,-0.38522 1.37504,-0.7249 1.37583,-0.75484 0.002,-0.0689 -2.75921,-1.86767 -2.85135,-1.85764 -0.10934,0.0119 -2.82002,1.79923 -2.81851,1.85842 0.002,0.0714 2.62984,1.43003 2.79262,1.44375 0.0699,0.006 0.74549,-0.30448 1.50141,-0.68969 z m -3.37865,-2.10877 1.3824,-0.90781 -1.02417,-0.68615 c -0.67802,-0.45425 -1.03736,-0.64946 -1.06317,-0.57758 -0.0214,0.0597 -0.21229,0.75628 -0.42412,1.54791 -0.21183,0.79164 -0.40268,1.48894 -0.42411,1.54957 -0.0468,0.1323 -0.17198,0.20695 1.55317,-0.92594 z m 5.34858,0.86725 c 0,-0.0998 -0.77016,-2.99688 -0.81804,-3.07719 -0.0204,-0.0343 -0.49567,0.24486 -1.05606,0.62031 l -1.01891,0.68262 1.383,0.91758 c 1.40183,0.93007 1.51001,0.99144 1.51001,0.85668 z m -2.24367,-2.91421 c 0.5588,-0.37012 1.04628,-0.70019 1.08328,-0.73348 0.0547,-0.0492 -1.38738,-0.9669 -2.10952,-1.3424 -0.15472,-0.0805 -0.33432,-0.002 -1.29801,0.56952 -0.61514,0.3646 -1.11835,0.69165 -1.11823,0.72677 3.8e-4,0.11502 2.24264,1.56065 2.33574,1.5059 0.0499,-0.0293 0.54794,-0.35619 1.10674,-0.72631 z m -2.56143,-2.048 c 0.405,-0.23283 0.73743,-0.44399 0.73874,-0.46924 0.004,-0.0746 -1.10185,-0.69843 -1.15096,-0.64932 -0.0247,0.0247 -0.11232,0.30557 -0.19465,0.6241 -0.0823,0.31852 -0.17866,0.66936 -0.21407,0.77964 -0.0764,0.23784 -0.10784,0.24877 0.82094,-0.28518 z m 3.56997,0.27517 c -0.0337,-0.10478 -0.12857,-0.45111 -0.21089,-0.76963 -0.0823,-0.31853 -0.16992,-0.59937 -0.19465,-0.6241 -0.0489,-0.0489 -1.15423,0.57417 -1.15192,0.64932 0.002,0.0519 1.4424,0.91332 1.54946,0.92643 0.0381,0.005 0.0417,-0.0773 0.008,-0.18202 z m -1.45304,-1.53921 c 0.22119,-0.12854 0.40217,-0.2418 0.40217,-0.25168 0,-0.0467 -1.09126,-0.81233 -1.15497,-0.81036 -0.12096,0.004 -1.05831,0.74034 -1.03863,0.81617 0.0101,0.0388 0.25058,0.21092 0.53446,0.38245 0.4486,0.27106 0.53829,0.29782 0.68547,0.2045 0.0931,-0.059 0.35031,-0.21253 0.5715,-0.34108 z m -1.75319,-1.07447 c 0.25412,-0.19186 0.46122,-0.37283 0.46023,-0.40216 -10e-4,-0.0293 -0.15359,-0.16072 -0.3391,-0.29196 -0.24383,-0.17251 -0.3473,-0.2077 -0.3734,-0.127 -0.0773,0.23886 -0.3017,1.07169 -0.3017,1.11949 0,0.0987 0.0977,0.0461 0.55397,-0.29837 z m 2.54589,0.20068 c -0.0243,-0.0815 -0.0892,-0.33867 -0.14422,-0.5715 -0.055,-0.23284 -0.12539,-0.452 -0.15643,-0.48704 -0.0661,-0.0746 -0.64022,0.32825 -0.64022,0.44928 0,0.0863 0.79614,0.73872 0.91588,0.75057 0.0381,0.004 0.0493,-0.0598 0.025,-0.14131 z m -0.74896,-1.54708 c 0.15211,-0.11074 0.26641,-0.2276 0.254,-0.25969 -0.0313,-0.0809 -0.97187,-0.83907 -1.04097,-0.83907 -0.0933,0 -1.04679,0.79983 -1.02958,0.86369 0.009,0.0326 0.24449,0.22999 0.52377,0.43856 l 0.50778,0.37922 0.25421,-0.19069 c 0.13982,-0.10488 0.37867,-0.28129 0.53079,-0.39202 z m -1.25023,-1.53115 c 0,-0.0416 -0.0572,-0.0756 -0.127,-0.0756 -0.0698,0 -0.127,0.056 -0.127,0.12435 0,0.0757 0.0496,0.10529 0.127,0.0756 0.0699,-0.0268 0.127,-0.0828 0.127,-0.12434 z m 1.18532,0.0514 c 0,-0.0699 -0.0571,-0.127 -0.127,-0.127 -0.22034,0 -0.14893,0.16687 0.10584,0.24732 0.0116,0.004 0.0212,-0.0505 0.0212,-0.12032 z m -0.4261,-0.67438 c 0.19349,-0.20596 0.19431,-0.21516 0.0624,-0.6985 -0.0735,-0.26938 -0.17778,-0.6596 -0.23164,-0.86715 -0.11911,-0.45902 -0.15819,-0.39909 -0.42273,0.64818 l -0.19672,0.77882 0.20525,0.17087 c 0.2678,0.22294 0.34793,0.21851 0.58348,-0.0322 z m 0.31151,-3.01462 c 0.68221,-0.33025 0.94777,-1.10618 0.60622,-1.77131 -0.26713,-0.52022 -0.65222,-0.76269 -1.21129,-0.76269 -1.42278,0 -1.88257,1.90307 -0.61176,2.53211 0.45103,0.22326 0.75855,0.22374 1.21683,0.002 z m -7.53108,4.71357 c -0.94652,-1.11571 -1.56335,-2.33408 -1.94012,-3.83212 -0.27308,-1.08582 -0.27197,-3.20926 0.002,-4.30036 0.37728,-1.50113 1.11271,-2.91685 2.06767,-3.98031 l 0.37735,-0.42022 0.28843,0.32564 c 0.46619,0.52632 0.46625,0.52745 0.059,0.96424 -0.81001,0.86888 -1.4621,2.10713 -1.77523,3.37098 -0.26253,1.0596 -0.26253,2.72957 0,3.78917 0.31313,1.26385 0.96522,2.50209 1.77523,3.37098 0.25859,0.27738 0.34906,0.43364 0.29985,0.51791 -0.0948,0.16231 -0.60549,0.73586 -0.65525,0.73586 -0.0218,0 -0.24644,-0.2438 -0.49923,-0.54177 z m 13.02201,0.22772 c -0.42694,-0.50733 -0.42696,-0.50815 -0.0246,-0.93972 0.81001,-0.86889 1.4621,-2.10713 1.77523,-3.37098 0.26253,-1.0596 0.26253,-2.72957 0,-3.78917 -0.31313,-1.26385 -0.96522,-2.5021 -1.77523,-3.37098 -0.4072,-0.43679 -0.40713,-0.43792 0.059,-0.96424 l 0.28843,-0.32564 0.37735,0.42022 c 0.95496,1.06346 1.69039,2.47918 2.06767,3.98031 0.27422,1.0911 0.27533,3.21454 0.002,4.30036 -0.2532,1.00673 -0.62611,1.91667 -1.09339,2.66795 -0.39411,0.63364 -1.2589,1.71092 -1.36455,1.69982 -0.032,-0.003 -0.17249,-0.14193 -0.31219,-0.30793 z m -11.32911,-1.9346 c -1.11296,-1.21047 -1.63218,-2.73309 -1.55737,-4.56702 0.0465,-1.13868 0.22499,-1.8377 0.70341,-2.75397 0.30883,-0.59145 1.11129,-1.61157 1.25736,-1.59839 0.0486,0.004 0.23524,0.17479 0.41473,0.37867 l 0.32635,0.37069 -0.43718,0.48917 c -1.68037,1.88014 -1.68068,4.9436 -7e-4,6.82033 l 0.43788,0.48916 -0.32635,0.3707 c -0.17949,0.20388 -0.35715,0.37428 -0.3948,0.37867 -0.0376,0.004 -0.22814,-0.16572 -0.42333,-0.37801 z m 9.64809,-6.6e-4 -0.32635,-0.3707 0.42829,-0.48052 c 1.69017,-1.89634 1.69017,-4.94127 0,-6.83761 l -0.42829,-0.48053 0.32635,-0.37069 c 0.17949,-0.20388 0.35587,-0.37428 0.39195,-0.37867 0.11886,-0.0144 0.77521,0.75019 1.09767,1.27878 1.22553,2.00891 1.22553,4.73092 0,6.73983 -0.32246,0.52858 -0.97881,1.29323 -1.09767,1.27878 -0.0361,-0.004 -0.21246,-0.17479 -0.39195,-0.37867 z m -8.19329,-1.75119 c -1.19344,-1.50169 -1.19344,-3.53598 0,-5.03767 0.19429,-0.24447 0.40697,-0.4445 0.47262,-0.4445 0.0656,0 0.25935,0.17083 0.43044,0.37963 l 0.31108,0.37963 -0.36891,0.41073 c -0.45652,0.50828 -0.66608,1.0725 -0.66608,1.79334 0,0.72085 0.20956,1.28507 0.66608,1.79334 l 0.36891,0.41074 -0.31108,0.37963 c -0.17109,0.20879 -0.36479,0.37963 -0.43044,0.37963 -0.0657,0 -0.27833,-0.20003 -0.47262,-0.4445 z m 6.64926,0.0596 -0.31539,-0.38489 0.30474,-0.31361 c 0.48092,-0.49493 0.73622,-1.13342 0.7372,-1.8437 0.001,-0.78311 -0.18193,-1.29336 -0.65104,-1.81512 l -0.38228,-0.4252 0.31107,-0.37963 c 0.1711,-0.2088 0.3648,-0.37963 0.43045,-0.37963 0.0657,0 0.27833,0.20003 0.47262,0.4445 0.97626,1.22842 1.16673,2.85192 0.49879,4.25146 -0.24616,0.51579 -0.82635,1.23071 -0.99877,1.23071 -0.0506,0 -0.23393,-0.1732 -0.40739,-0.38489 z"
       id="path2-6" /></g></svg>
